<svg width="16" height="16" viewBox="0 0 16 16" fill="none" xmlns="http://www.w3.org/2000/svg">
<path d="M6.5 12.5C6.5 14.1569 5.15685 15.5 3.5 15.5C1.84315 15.5 0.5 14.1569 0.5 12.5C0.5 10.8431 1.84315 9.5 3.5 9.5C5.15685 9.5 6.5 10.8431 6.5 12.5ZM15.5 3.5C15.5 5.15685 14.1569 6.5 12.5 6.5C10.8431 6.5 9.5 5.15685 9.5 3.5C9.5 1.84315 10.8431 0.5 12.5 0.5C14.1569 0.5 15.5 1.84315 15.5 3.5ZM15.5 12.5C15.5 14.1569 14.1569 15.5 12.5 15.5C10.8431 15.5 9.5 14.1569 9.5 12.5C9.5 10.8431 10.8431 9.5 12.5 9.5C14.1569 9.5 15.5 10.8431 15.5 12.5Z" stroke="white"/>
<circle cx="3.5" cy="3.5" r="2.5" stroke="white" stroke-width="2"/>
</svg>
