<svg width="29" height="16" viewBox="0 0 29 16" fill="none" xmlns="http://www.w3.org/2000/svg">
<path fill-rule="evenodd" clip-rule="evenodd" d="M23.4424 10.4424C23.833 10.0519 24.4661 10.0519 24.8566 10.4424L28.7071 14.2929C29.0976 14.6834 29.0976 15.3166 28.7071 15.7071C28.3166 16.0976 27.6834 16.0976 27.2929 15.7071L23.4424 11.8566C23.0519 11.4661 23.0519 10.833 23.4424 10.4424Z" fill="white"/>
<path fill-rule="evenodd" clip-rule="evenodd" d="M19.5 12C22.5376 12 25 9.53757 25 6.5C25 3.46243 22.5376 1 19.5 1C16.4624 1 14 3.46243 14 6.5C14 9.53757 16.4624 12 19.5 12ZM26 6.5C26 10.0899 23.0899 13 19.5 13C15.9101 13 13 10.0899 13 6.5C13 2.91015 15.9101 0 19.5 0C23.0899 0 26 2.91015 26 6.5Z" fill="white"/>
<path d="M24.7422 10.3439C25.5329 9.2673 26 7.9382 26 6.5C26 2.91015 23.0899 0 19.5 0C15.9101 0 13 2.91015 13 6.5C13 10.0899 15.9101 13 19.5 13C20.9386 13 22.268 12.5327 23.3448 11.7415L23.3439 11.7422C23.3734 11.7822 23.4062 11.8204 23.4424 11.8566L27.2929 15.7071C27.6834 16.0976 28.3166 16.0976 28.7071 15.7071C29.0976 15.3166 29.0976 14.6834 28.7071 14.2929L24.8566 10.4424C24.8204 10.4062 24.7822 10.3734 24.7422 10.3439ZM25 6.5C25 9.53757 22.5376 12 19.5 12C16.4624 12 14 9.53757 14 6.5C14 3.46243 16.4624 1 19.5 1C22.5376 1 25 3.46243 25 6.5Z" fill="white"/>
</svg>
